<?xml version="1.0"?>
<svg xmlns="http://www.w3.org/2000/svg" xmlns:xlink="http://www.w3.org/1999/xlink" version="1.1" id="Capa_1" x="0px" y="0px" viewBox="0 0 489.9 489.9" style="enable-background:new 0 0 489.9 489.9;" xml:space="preserve" width="30px" height="30px" class=""><g transform="matrix(-1 -1.22465e-16 1.22465e-16 -1 489.9 489.9)"><g>
	<g>
		<g>
			<path d="M5,232.9c-3.2,3.2-5,7.6-5,12.1c0,4.6,1.8,8.9,5,12.1l137.7,137.7c6.7,6.7,17.6,6.7,24.3,0s6.7-17.6,0-24.3L58.5,262.2     h414.2c9.5,0,17.2-7.7,17.2-17.2s-7.7-17.1-17.2-17.1H58.5l108.4-108.5c6.7-6.7,6.7-17.6,0-24.3c-6.7-6.7-17.6-6.7-24.3,0     L5,232.9z" data-original="#000000" class="active-path" data-old_color="#000000" fill="#FFFFFF"/>
		</g>
	</g>
	<g>
	</g>
	<g>
	</g>
	<g>
	</g>
	<g>
	</g>
	<g>
	</g>
	<g>
	</g>
	<g>
	</g>
	<g>
	</g>
	<g>
	</g>
	<g>
	</g>
	<g>
	</g>
	<g>
	</g>
	<g>
	</g>
	<g>
	</g>
	<g>
	</g>
</g></g> </svg>
